<svg width="150" height="150" viewBox="0 0 150 150" fill="none" xmlns="http://www.w3.org/2000/svg">
<path d="M149.25 128.872H97.5195L91.9033 102.324H100.208V92.4014C89.3947 87.8634 80.875 84.4551 80.875 84.4551C80.8681 84.4523 76.4805 82.6935 76.4805 77.4248C76.4806 72.1522 80.875 70.3945 80.875 70.3945L100.208 61.6943V57.668L73.8447 44.9092L47.4805 57.668V65.8057H54.0713V88.8496H47.4805V102.324H54.0713L49.6133 128.872H0.0253906V37.8447H149.25V128.872Z" fill="#3B82F6"/>
<path d="M47.4806 102.324H54.0714L47.4806 141.577H12.9328C12.9328 141.577 9.41743 141.577 5.02358 138.062C0.629612 134.547 0.0255328 130.364 0.0255341 128.872C0.0254262 127.379 -0.720123 119.919 5.90249 113.456C9.77321 109.679 30.7305 100.414 47.4806 93.3643V102.324Z" fill="#F8FAFC"/>
<path d="M100.208 92.4746C117.811 99.9199 141.54 110.376 144.774 113.95C149.979 119.703 149.255 128.071 149.25 128.126C149.25 128.126 149.421 134.547 145.027 138.062C140.663 141.554 137.165 141.577 137.118 141.577H100.208L91.9035 102.324H100.208V92.4746Z" fill="#F8FAFC"/>
<path d="M46.631 8C46.7074 8.00003 56.3186 8.00717 61.5705 9.75781C66.8431 11.5156 70.798 17.2275 70.798 17.2275L74.5324 21.8408L78.3683 25.9072H132.836C132.908 25.9118 141.53 26.4769 145.905 31.7275C150.299 37.0003 149.506 39.7553 148.542 40.1445C143.276 42.2707 133.629 46.6551 133.603 46.667L91.0724 65.8057L100.208 61.6943V57.668L73.8439 44.9092L47.4806 57.668V60.6309L16.4474 46.667C16.3814 46.637 6.76264 42.2663 1.50796 40.1445C0.380946 39.6895 -0.00345264 39.3369 0.0255341 38.5908V21.2051C0.0259377 21.1607 0.0766521 16.7653 4.44839 12.3936C8.84233 7.99985 14.1154 8 14.1154 8H46.631Z" fill="#F8FAFC"/>
</svg>
