<svg width="150" height="150" viewBox="0 0 150 150" fill="none" xmlns="http://www.w3.org/2000/svg">
<rect x="0.025238" y="37.845" width="149.225" height="91.0274" fill="#F8FAFC"/>
<path d="M5.0234 138.062C0.629431 134.547 0.0252264 130.365 0.0252278 128.872C0.0252291 127.38 -0.720897 119.919 5.9022 113.456C12.5253 106.993 69.1757 84.4555 69.1757 84.4555C69.1757 84.4555 73.5698 82.6979 73.5698 77.4251C73.5698 72.1523 69.1757 70.3947 69.1757 70.3947L16.4478 46.6671C16.4478 46.6671 6.781 42.2731 1.5082 40.1441C0.381167 39.689 -0.00375927 39.3373 0.0252278 38.5912V21.2054C0.0252278 21.2054 0.0542782 16.788 4.44827 12.394C8.84227 8 14.115 8 14.115 8H46.6306C46.6306 8 56.2974 8.00001 61.5702 9.75764C66.843 11.5153 70.7976 17.2274 70.7976 17.2274L74.5325 21.8411L78.3685 25.907L84.3375 25.907L132.836 25.907C132.836 25.907 141.512 26.4547 145.906 31.7275C150.3 37.0003 149.506 39.7548 148.542 40.1441C143.269 42.2731 133.603 46.6671 133.603 46.6671L80.8747 70.3947C80.8747 70.3947 76.4807 72.1523 76.4807 77.4251C76.4807 82.6979 80.8747 84.4555 80.8747 84.4555C80.8747 84.4555 139.551 108.178 144.774 113.95C149.997 119.722 149.25 128.126 149.25 128.126C149.25 128.126 149.421 134.547 145.027 138.062C140.633 141.577 137.118 141.577 137.118 141.577H12.9326C12.9326 141.577 9.41737 141.577 5.0234 138.062Z" fill="#005AEE"/>
<path d="M76.4808 77.4251C76.4808 72.1523 80.8749 70.3947 80.8749 70.3947L100.208 61.6946V57.6684L73.8444 44.9095L47.4804 57.6684V65.8054H54.0714L54.0715 88.8495H47.4805L47.4804 102.324H54.0714L47.4804 141.577H100.208L91.9037 102.324H100.208L100.208 94.1223L100.208 92.4015C89.3949 87.8635 80.8749 84.4554 80.8749 84.4554C80.8749 84.4554 76.4808 82.6978 76.4808 77.4251Z" fill="#001A41"/>
</svg>
