<svg width="149" height="135" viewBox="0 0 149 135" fill="none" xmlns="http://www.w3.org/2000/svg">
<path d="M4.9905 130.474C0.603276 126.947 0 122.752 0 121.255V30.6879V13.2472C0 13.2472 0.0290053 8.81579 4.41626 4.4079C8.80352 0 14.0682 0 14.0682 0H46.5338C46.5338 0 56.1859 9.80608e-06 61.4506 1.7632C66.7153 3.52639 70.6638 9.25658 70.6638 9.25658L74.3929 13.8849L78.223 17.9637L84.1829 17.9637L132.607 17.9637C132.607 17.9637 141.27 18.5131 145.657 23.8026C149.245 28.5902 148.996 31.0981 148.996 32.1012V120.506C148.996 120.506 149.167 126.947 144.779 130.474C140.392 134 136.882 134 136.882 134H12.8876C12.8876 134 9.37773 134 4.9905 130.474Z" fill="#001A41"/>
<path d="M0 39C0 31.8203 5.8203 26 13 26H136C143.18 26 149 31.8203 149 39V110C149 117.18 143.18 123 136 123H13C5.8203 123 0 117.18 0 110V39Z" fill="white"/>
<path d="M144.01 130.5C148.397 126.974 149 122.778 149 121.281L149 48.6879V31.2472C149 31.2472 148.971 26.8158 144.584 22.4079C140.197 18 134.932 18 134.932 18H102.466C102.466 18 92.8142 18 87.5495 19.7632C82.2848 21.5264 78.3363 27.2566 78.3363 27.2566L74.6071 31.8849L70.777 35.9637L64.8172 35.9637L16.3933 35.9637C16.3933 35.9637 7.73042 36.5131 3.34317 41.8026C-0.245468 46.5902 0.0037384 49.0981 0.0037384 50.1012L0.00382996 120.533C0.00382996 120.533 -0.166534 126.974 4.22069 130.5C8.60791 134.026 12.1178 134.026 12.1178 134.026H136.113C136.113 134.026 139.622 134.026 144.01 130.5Z" fill="#005AEE"/>
</svg>
