<svg width="149" height="135" viewBox="0 0 149 135" fill="none" xmlns="http://www.w3.org/2000/svg">
<path d="M4.9905 130.474C0.603276 126.947 0 122.752 0 121.255V30.6879V13.2472C0 13.2472 0.0290053 8.81579 4.41626 4.4079C8.80352 0 14.0682 0 14.0682 0H46.5338C46.5338 0 56.1859 9.80608e-06 61.4506 1.7632C66.7153 3.52639 70.6638 9.25658 70.6638 9.25658L74.3929 13.8849L78.223 17.9637L84.1829 17.9637L132.607 17.9637C132.607 17.9637 141.27 18.5131 145.657 23.8026C149.245 28.5902 148.996 31.0981 148.996 32.1012V120.506C148.996 120.506 149.167 126.947 144.779 130.474C140.392 134 136.882 134 136.882 134H12.8876C12.8876 134 9.37773 134 4.9905 130.474Z" fill="#001A41"/>
<path d="M0 37C0 29.8203 5.8203 24 13 24H136C143.18 24 149 29.8203 149 37V108C149 115.18 143.18 121 136 121H13C5.8203 121 0 115.18 0 108V37Z" fill="white"/>
<path d="M144.01 130.5C148.397 126.974 149 122.778 149 121.281L149 47.6879V30.2472C149 30.2472 148.971 25.8158 144.584 21.4079C140.197 17 134.932 17 134.932 17H102.466C102.466 17 92.8142 17 87.5495 18.7632C82.2848 20.5264 78.3363 26.2566 78.3363 26.2566L74.6071 30.8849L70.777 34.9637L64.8172 34.9637L16.3933 34.9637C16.3933 34.9637 7.73042 35.5131 3.34317 40.8026C-0.245468 45.5902 0.0037384 48.0981 0.0037384 49.1012L0.00382996 120.533C0.00382996 120.533 -0.166534 126.974 4.22069 130.5C8.60791 134.026 12.1178 134.026 12.1178 134.026H136.113C136.113 134.026 139.622 134.026 144.01 130.5Z" fill="#005AEE"/>
</svg>
